<?xml version="1.0" encoding="UTF-8"?>
<!DOCTYPE svg PUBLIC "-//W3C//DTD SVG 1.1//EN" "http://www.w3.org/Graphics/SVG/1.1/DTD/svg11.dtd">
<svg xmlns="http://www.w3.org/2000/svg" version="1.1" width="512px" height="512px" style="shape-rendering:geometricPrecision; text-rendering:geometricPrecision; image-rendering:optimizeQuality; fill-rule:evenodd; clip-rule:evenodd" xmlns:xlink="http://www.w3.org/1999/xlink">
<g><path style="opacity:1" fill="#222222" d="M -0.5,-0.5 C 170.167,-0.5 340.833,-0.5 511.5,-0.5C 511.5,137.167 511.5,274.833 511.5,412.5C 508.972,413.399 506.472,414.399 504,415.5C 503.057,425.165 502.224,425.499 501.5,416.5C 497.167,416.5 492.833,416.5 488.5,416.5C 488.579,415.07 488.246,413.736 487.5,412.5C 486.833,411.167 486.167,411.167 485.5,412.5C 483.118,415.793 482.118,419.46 482.5,423.5C 481.167,423.5 479.833,423.5 478.5,423.5C 478.5,413.833 478.5,404.167 478.5,394.5C 476.167,394.5 473.833,394.5 471.5,394.5C 471.5,392.833 471.5,391.167 471.5,389.5C 468.833,389.5 466.167,389.5 463.5,389.5C 463.663,387.143 463.497,384.81 463,382.5C 461.644,381.62 460.144,381.286 458.5,381.5C 458.5,379.5 458.5,377.5 458.5,375.5C 451.911,375.897 445.578,377.397 439.5,380C 438.266,383.2 436.933,386.367 435.5,389.5C 434.833,387.167 434.167,384.833 433.5,382.5C 430.95,383.942 428.284,385.108 425.5,386C 424.929,387.205 424.262,388.372 423.5,389.5C 421.929,388.691 420.262,388.357 418.5,388.5C 418.5,385.5 418.5,382.5 418.5,379.5C 416.5,379.5 414.5,379.5 412.5,379.5C 413.789,385.594 411.789,389.927 406.5,392.5C 405.614,391.675 405.281,390.675 405.5,389.5C 400.5,389.5 395.5,389.5 390.5,389.5C 390.849,392.045 390.016,394.045 388,395.5C 387.5,405.828 387.334,416.161 387.5,426.5C 386.167,426.5 384.833,426.5 383.5,426.5C 383.5,424.833 383.5,423.167 383.5,421.5C 380.833,421.5 378.167,421.5 375.5,421.5C 375.5,424.5 375.5,427.5 375.5,430.5C 374.167,430.5 372.833,430.5 371.5,430.5C 371.5,428.833 371.5,427.167 371.5,425.5C 365.491,425.701 359.491,426.034 353.5,426.5C 353.5,414.833 353.5,403.167 353.5,391.5C 348.833,391.5 344.167,391.5 339.5,391.5C 339.5,389.167 339.5,386.833 339.5,384.5C 325.501,385.894 311.501,387.227 297.5,388.5C 297.5,390.833 297.5,393.167 297.5,395.5C 292.022,395.369 286.689,396.202 281.5,398C 280.533,402.401 280.2,406.901 280.5,411.5C 274.794,411.171 269.128,411.505 263.5,412.5C 262.568,414.795 261.735,417.129 261,419.5C 259.836,440.823 259.002,440.823 258.5,419.5C 253.5,419.5 248.5,419.5 243.5,419.5C 243.5,417.833 243.5,416.167 243.5,414.5C 241.167,414.5 238.833,414.5 236.5,414.5C 236.5,416.167 236.5,417.833 236.5,419.5C 233.833,419.5 231.167,419.5 228.5,419.5C 228.5,421.5 228.5,423.5 228.5,425.5C 226.167,425.5 223.833,425.5 221.5,425.5C 221.5,433.833 221.5,442.167 221.5,450.5C 215.463,450.829 209.463,450.496 203.5,449.5C 202.167,446.833 200.833,444.167 199.5,441.5C 196.291,440.213 193.125,440.213 190,441.5C 189.433,444.168 188.933,446.834 188.5,449.5C 186.833,449.5 185.167,449.5 183.5,449.5C 182.992,453.197 182.326,456.864 181.5,460.5C 175.833,460.5 170.167,460.5 164.5,460.5C 164.5,458.833 164.5,457.167 164.5,455.5C 162.167,455.5 159.833,455.5 157.5,455.5C 157.665,452.15 157.498,448.817 157,445.5C 154.281,444.556 151.448,444.223 148.5,444.5C 148.5,448.5 148.5,452.5 148.5,456.5C 146.833,456.5 145.167,456.5 143.5,456.5C 143.5,454.167 143.5,451.833 143.5,449.5C 139.5,449.5 135.5,449.5 131.5,449.5C 131.946,445.106 129.946,443.44 125.5,444.5C 123.833,444.667 122.167,444.833 120.5,445C 119.482,449.85 116.482,451.683 111.5,450.5C 111.5,455.5 111.5,460.5 111.5,465.5C 106.5,465.5 101.5,465.5 96.5,465.5C 96.5,462.833 96.5,460.167 96.5,457.5C 93.5,457.5 90.5,457.5 87.5,457.5C 87.5,455.833 87.5,454.167 87.5,452.5C 80.5,453.167 73.5,453.833 66.5,454.5C 66.5,456.167 66.5,457.833 66.5,459.5C 64.5,459.5 62.5,459.5 60.5,459.5C 60.5,466.167 60.5,472.833 60.5,479.5C 58.8333,479.5 57.1667,479.5 55.5,479.5C 55.6666,457.164 55.5,434.831 55,412.5C 52.6194,411.565 50.1194,411.232 47.5,411.5C 47.5,408.833 47.5,406.167 47.5,403.5C 43.1667,403.5 38.8333,403.5 34.5,403.5C 34.5,405.167 34.5,406.833 34.5,408.5C 29.3494,408.08 24.516,409.08 20,411.5C 19.3333,412.833 18.6667,414.167 18,415.5C 17.8303,421.528 17.3303,427.528 16.5,433.5C 15.914,433.709 15.414,434.043 15,434.5C 14.6667,441.833 14.3333,449.167 14,456.5C 8.92713,462.064 4.09379,467.731 -0.5,473.5C -0.5,315.5 -0.5,157.5 -0.5,-0.5 Z"/></g>
<g><path style="opacity:1" fill="#f4f4f4" d="M 66.5,189.5 C 66.1712,195.206 66.5046,200.872 67.5,206.5C 68.1067,206.376 68.44,206.043 68.5,205.5C 73.9647,200.536 79.298,195.37 84.5,190C 85.5,189.333 86.5,189.333 87.5,190C 81.3185,196.014 75.3185,202.181 69.5,208.5C 75.6519,215.152 81.9852,221.652 88.5,228C 87.1667,228.667 85.8333,228.667 84.5,228C 79.0323,221.531 73.199,215.364 67,209.5C 65.8075,234.693 64.9741,234.526 64.5,209C 64.5034,202.131 65.17,195.631 66.5,189.5 Z"/></g>
<g><path style="opacity:1" fill="#585858" d="M 66.5,189.5 C 67.1667,194.833 67.8333,200.167 68.5,205.5C 68.44,206.043 68.1067,206.376 67.5,206.5C 66.5046,200.872 66.1712,195.206 66.5,189.5 Z"/></g>
<g><path style="opacity:1" fill="#f1f1f1" d="M 106.5,211.5 C 103.713,210.523 100.713,210.19 97.5,210.5C 97.5,216.5 97.5,222.5 97.5,228.5C 95.5191,215.876 94.8524,202.876 95.5,189.5C 100.511,189.334 105.511,189.501 110.5,190C 118.031,191.62 120.531,196.12 118,203.5C 116.437,206.728 113.937,208.895 110.5,210C 114.345,215.346 117.345,221.179 119.5,227.5C 118.5,228.833 117.5,228.833 116.5,227.5C 114.625,222.376 112.459,217.376 110,212.5C 108.989,211.663 107.822,211.33 106.5,211.5 Z"/></g>
<g><path style="opacity:1" fill="#e9e9e9" d="M 137.5,189.5 C 140.48,189.241 142.313,190.574 143,193.5C 146.837,204.505 150.67,215.505 154.5,226.5C 154.176,228.569 153.342,228.902 152,227.5C 150.722,223.835 149.556,220.168 148.5,216.5C 142.5,216.5 136.5,216.5 130.5,216.5C 129.5,220.5 128.5,224.5 127.5,228.5C 126.5,228.5 125.5,228.5 124.5,228.5C 128.632,215.438 132.965,202.438 137.5,189.5 Z"/></g>
<g><path style="opacity:1" fill="#f1f1f1" d="M 161.5,189.5 C 169.167,189.5 176.833,189.5 184.5,189.5C 184.657,190.873 184.49,192.207 184,193.5C 177.307,203.558 171.14,213.891 165.5,224.5C 164.957,224.56 164.624,224.893 164.5,225.5C 171.134,226.497 177.8,226.83 184.5,226.5C 176.903,228.467 168.903,229.134 160.5,228.5C 166.377,216.416 173.044,204.749 180.5,193.5C 181.043,193.44 181.376,193.107 181.5,192.5C 174.45,192.143 167.783,191.143 161.5,189.5 Z"/></g>
<g><path style="opacity:1" fill="#e5e5e5" d="M 191.5,189.5 C 192.675,189.281 193.675,189.614 194.5,190.5C 198.084,196.669 201.917,202.669 206,208.5C 209.667,202.5 213.333,196.5 217,190.5C 218.049,189.483 219.216,189.316 220.5,190C 216.208,196.75 212.041,203.583 208,210.5C 207.501,216.491 207.334,222.491 207.5,228.5C 206.5,228.5 205.5,228.5 204.5,228.5C 204.666,222.491 204.499,216.491 204,210.5C 199.307,203.775 195.14,196.775 191.5,189.5 Z"/></g>
<g><path style="opacity:1" fill="#dddddd" d="M 255.5,189.5 C 256.833,189.5 258.167,189.5 259.5,189.5C 262.504,201.18 265.671,212.847 269,224.5C 272.004,213.151 275.004,201.817 278,190.5C 279.356,189.62 280.856,189.286 282.5,189.5C 284.08,202.474 285.413,215.474 286.5,228.5C 285.5,228.5 284.5,228.5 283.5,228.5C 282.605,216.818 281.438,205.151 280,193.5C 277,204.833 274,216.167 271,227.5C 269.644,228.38 268.144,228.714 266.5,228.5C 264.266,216.696 261.433,205.029 258,193.5C 256.493,205.24 254.66,216.907 252.5,228.5C 252.167,226.667 251.833,224.833 251.5,223C 252.711,211.809 254.045,200.643 255.5,189.5 Z"/></g>
<g><path style="opacity:1" fill="#e6e6e6" d="M 328.5,189.5 C 329.5,189.5 330.5,189.5 331.5,189.5C 335.097,201.29 339.097,212.957 343.5,224.5C 347.903,212.957 351.903,201.29 355.5,189.5C 356.675,189.281 357.675,189.614 358.5,190.5C 353.76,203.053 349.427,215.719 345.5,228.5C 343.549,228.773 342.049,228.107 341,226.5C 336.526,214.243 332.359,201.91 328.5,189.5 Z"/></g>
<g><path style="opacity:1" fill="#fefffe" d="M 386.5,189.5 C 380.588,191.456 374.255,192.123 367.5,191.5C 367.179,196.695 367.513,201.695 368.5,206.5C 374.167,206.5 379.833,206.5 385.5,206.5C 380.265,208.45 374.598,209.117 368.5,208.5C 367.51,214.31 367.177,220.31 367.5,226.5C 374.255,225.877 380.588,226.544 386.5,228.5C 379.5,228.5 372.5,228.5 365.5,228.5C 365.5,215.5 365.5,202.5 365.5,189.5C 372.5,189.5 379.5,189.5 386.5,189.5 Z"/></g>
<g><path style="opacity:1" fill="#e6e6e6" d="M 395.5,189.5 C 400.844,189.334 406.177,189.501 411.5,190C 419.409,192.701 421.576,197.867 418,205.5C 416.269,207.617 414.102,209.117 411.5,210C 415.153,215.473 418.153,221.306 420.5,227.5C 419.5,228.833 418.5,228.833 417.5,227.5C 415.471,221.941 412.805,216.774 409.5,212C 405.974,210.663 402.308,210.163 398.5,210.5C 398.5,216.5 398.5,222.5 398.5,228.5C 397.5,228.5 396.5,228.5 395.5,228.5C 395.5,215.5 395.5,202.5 395.5,189.5 Z"/></g>
<g><path style="opacity:1" fill="#e3e3e3" d="M 431.5,189.5 C 435.514,189.334 439.514,189.501 443.5,190C 445.286,190.196 446.619,191.029 447.5,192.5C 445.813,193.568 444.146,193.401 442.5,192C 432.493,189.186 428.493,192.686 430.5,202.5C 434.721,205.778 439.388,208.278 444.5,210C 450.25,216.811 449.584,222.811 442.5,228C 437.268,230.13 432.268,229.63 427.5,226.5C 426.417,225.635 426.251,224.635 427,223.5C 432.734,227.44 438.401,227.44 444,223.5C 446.269,219.286 445.769,215.453 442.5,212C 438.833,210.333 435.167,208.667 431.5,207C 424.908,200.921 424.908,195.088 431.5,189.5 Z"/></g>
<g><path style="opacity:1" fill="#777777" d="M 161.5,189.5 C 167.783,191.143 174.45,192.143 181.5,192.5C 181.376,193.107 181.043,193.44 180.5,193.5C 174.021,192.509 167.354,192.176 160.5,192.5C 160.263,191.209 160.596,190.209 161.5,189.5 Z"/></g>
<g><path style="opacity:1" fill="#757575" d="M 386.5,189.5 C 387.404,190.209 387.737,191.209 387.5,192.5C 381.167,192.5 374.833,192.5 368.5,192.5C 368.5,197.167 368.5,201.833 368.5,206.5C 367.513,201.695 367.179,196.695 367.5,191.5C 374.255,192.123 380.588,191.456 386.5,189.5 Z"/></g>
<g><path style="opacity:1" fill="#5d5d5d" d="M 107.5,192.5 C 104.5,192.5 101.5,192.5 98.5,192.5C 98.5,197.833 98.5,203.167 98.5,208.5C 97.5111,203.025 97.1778,197.358 97.5,191.5C 101.042,191.187 104.375,191.521 107.5,192.5 Z"/></g>
<g><path style="opacity:1" fill="#242424" d="M 107.5,192.5 C 116.545,193.381 118.712,197.714 114,205.5C 109.162,207.985 103.995,208.985 98.5,208.5C 98.5,203.167 98.5,197.833 98.5,192.5C 101.5,192.5 104.5,192.5 107.5,192.5 Z"/></g>
<g><path style="opacity:1" fill="#262626" d="M 398.5,191.5 C 403.248,191.275 407.915,191.775 412.5,193C 415.683,194.018 417.016,196.185 416.5,199.5C 416.596,201.926 415.93,204.093 414.5,206C 409.361,207.961 404.028,208.794 398.5,208.5C 398.5,202.833 398.5,197.167 398.5,191.5 Z"/></g>
<g><path style="opacity:1" fill="#2b2b2b" d="M 139.5,193.5 C 142.806,200.085 145.14,207.085 146.5,214.5C 141.833,214.5 137.167,214.5 132.5,214.5C 133.98,207.208 136.314,200.208 139.5,193.5 Z"/></g>
<g><path style="opacity:1" fill="#e5e5e5" d="M 304.5,188.5 C 320.365,189.833 326.865,198.5 324,214.5C 320.509,227.565 312.342,231.731 299.5,227C 291.637,219.255 289.47,210.088 293,199.5C 295.437,194.226 299.271,190.56 304.5,188.5 Z"/></g>
<g><path style="opacity:1" fill="#242424" d="M 302.5,191.5 C 311.521,189.875 317.688,193.208 321,201.5C 321.789,207.237 321.456,212.903 320,218.5C 318.73,222.77 315.896,225.27 311.5,226C 302.737,227.699 297.237,224.199 295,215.5C 292.4,205.695 294.9,197.695 302.5,191.5 Z"/></g>
<g><path style="opacity:1" fill="#575757" d="M 385.5,206.5 C 386.404,207.209 386.737,208.209 386.5,209.5C 380.5,209.5 374.5,209.5 368.5,209.5C 368.5,209.167 368.5,208.833 368.5,208.5C 374.598,209.117 380.265,208.45 385.5,206.5 Z"/></g>
<g><path style="opacity:1" fill="#565656" d="M 106.5,211.5 C 103.833,211.5 101.167,211.5 98.5,211.5C 98.8222,217.358 98.4889,223.025 97.5,228.5C 97.5,222.5 97.5,216.5 97.5,210.5C 100.713,210.19 103.713,210.523 106.5,211.5 Z"/></g>
<g><path style="opacity:1" fill="#686868" d="M 165.5,224.5 C 171.833,225.167 178.167,225.833 184.5,226.5C 177.8,226.83 171.134,226.497 164.5,225.5C 164.624,224.893 164.957,224.56 165.5,224.5 Z"/></g>
<g><path style="opacity:1" fill="#6f6f6f" d="M 368.5,208.5 C 368.5,208.833 368.5,209.167 368.5,209.5C 368.5,214.833 368.5,220.167 368.5,225.5C 374.833,225.5 381.167,225.5 387.5,225.5C 387.737,226.791 387.404,227.791 386.5,228.5C 380.588,226.544 374.255,225.877 367.5,226.5C 367.177,220.31 367.51,214.31 368.5,208.5 Z"/></g>
<g><path style="opacity:1" fill="#fcbb58" d="M 72.5,279.5 C 195.127,280.665 319.127,280.831 444.5,280C 443.956,279.283 443.289,278.783 442.5,278.5C 437.213,275.053 432.046,271.386 427,267.5C 426.167,263 428,261.167 432.5,262C 443.34,268.397 453.34,275.73 462.5,284C 462.357,286.151 461.357,287.818 459.5,289C 449.99,295.182 440.49,301.349 431,307.5C 427.641,306.771 426.308,304.771 427,301.5C 432.264,297.124 437.764,293.124 443.5,289.5C 444.289,289.217 444.956,288.717 445.5,288C 320.5,287.333 195.5,287.333 70.5,288C 71.0442,288.717 71.7109,289.217 72.5,289.5C 77.8154,293.141 83.1487,296.808 88.5,300.5C 89.7039,305.459 87.7039,307.292 82.5,306C 73.8333,300.333 65.1667,294.667 56.5,289C 51.8066,286.311 51.4732,283.311 55.5,280C 64.672,274.248 73.672,268.248 82.5,262C 88.0798,260.739 89.9132,262.906 88,268.5C 82.5029,271.82 77.3362,275.487 72.5,279.5 Z"/></g>
<g><path style="opacity:1" fill="#5a4930" d="M 442.5,278.5 C 443.289,278.783 443.956,279.283 444.5,280C 319.127,280.831 195.127,280.665 72.5,279.5C 196.001,279.833 319.334,279.5 442.5,278.5 Z"/></g>
<g><path style="opacity:1" fill="#91703d" d="M 443.5,289.5 C 319.833,288.167 196.167,288.167 72.5,289.5C 71.7109,289.217 71.0442,288.717 70.5,288C 195.5,287.333 320.5,287.333 445.5,288C 444.956,288.717 444.289,289.217 443.5,289.5 Z"/></g>
<g><path style="opacity:1" fill="#727272" d="M 511.5,412.5 C 511.5,445.5 511.5,478.5 511.5,511.5C 340.833,511.5 170.167,511.5 -0.5,511.5C -0.5,498.833 -0.5,486.167 -0.5,473.5C 4.09379,467.731 8.92713,462.064 14,456.5C 14.3333,449.167 14.6667,441.833 15,434.5C 15.414,434.043 15.914,433.709 16.5,433.5C 17.3303,427.528 17.8303,421.528 18,415.5C 18.6667,414.167 19.3333,412.833 20,411.5C 24.516,409.08 29.3494,408.08 34.5,408.5C 34.5,406.833 34.5,405.167 34.5,403.5C 38.8333,403.5 43.1667,403.5 47.5,403.5C 47.5,406.167 47.5,408.833 47.5,411.5C 50.1194,411.232 52.6194,411.565 55,412.5C 55.5,434.831 55.6666,457.164 55.5,479.5C 57.1667,479.5 58.8333,479.5 60.5,479.5C 60.5,472.833 60.5,466.167 60.5,459.5C 62.5,459.5 64.5,459.5 66.5,459.5C 66.5,457.833 66.5,456.167 66.5,454.5C 73.5,453.833 80.5,453.167 87.5,452.5C 87.5,454.167 87.5,455.833 87.5,457.5C 90.5,457.5 93.5,457.5 96.5,457.5C 96.5,460.167 96.5,462.833 96.5,465.5C 101.5,465.5 106.5,465.5 111.5,465.5C 111.5,460.5 111.5,455.5 111.5,450.5C 116.482,451.683 119.482,449.85 120.5,445C 122.167,444.833 123.833,444.667 125.5,444.5C 129.946,443.44 131.946,445.106 131.5,449.5C 135.5,449.5 139.5,449.5 143.5,449.5C 143.5,451.833 143.5,454.167 143.5,456.5C 145.167,456.5 146.833,456.5 148.5,456.5C 148.5,452.5 148.5,448.5 148.5,444.5C 151.448,444.223 154.281,444.556 157,445.5C 157.498,448.817 157.665,452.15 157.5,455.5C 159.833,455.5 162.167,455.5 164.5,455.5C 164.5,457.167 164.5,458.833 164.5,460.5C 170.167,460.5 175.833,460.5 181.5,460.5C 182.326,456.864 182.992,453.197 183.5,449.5C 185.167,449.5 186.833,449.5 188.5,449.5C 188.933,446.834 189.433,444.168 190,441.5C 193.125,440.213 196.291,440.213 199.5,441.5C 200.833,444.167 202.167,446.833 203.5,449.5C 209.463,450.496 215.463,450.829 221.5,450.5C 221.5,442.167 221.5,433.833 221.5,425.5C 223.833,425.5 226.167,425.5 228.5,425.5C 228.5,423.5 228.5,421.5 228.5,419.5C 231.167,419.5 233.833,419.5 236.5,419.5C 236.5,417.833 236.5,416.167 236.5,414.5C 238.833,414.5 241.167,414.5 243.5,414.5C 243.5,416.167 243.5,417.833 243.5,419.5C 248.5,419.5 253.5,419.5 258.5,419.5C 259.002,440.823 259.836,440.823 261,419.5C 261.735,417.129 262.568,414.795 263.5,412.5C 269.128,411.505 274.794,411.171 280.5,411.5C 280.2,406.901 280.533,402.401 281.5,398C 286.689,396.202 292.022,395.369 297.5,395.5C 297.5,393.167 297.5,390.833 297.5,388.5C 311.501,387.227 325.501,385.894 339.5,384.5C 339.5,386.833 339.5,389.167 339.5,391.5C 344.167,391.5 348.833,391.5 353.5,391.5C 353.5,403.167 353.5,414.833 353.5,426.5C 359.491,426.034 365.491,425.701 371.5,425.5C 371.5,427.167 371.5,428.833 371.5,430.5C 372.833,430.5 374.167,430.5 375.5,430.5C 375.5,427.5 375.5,424.5 375.5,421.5C 378.167,421.5 380.833,421.5 383.5,421.5C 383.5,423.167 383.5,424.833 383.5,426.5C 384.833,426.5 386.167,426.5 387.5,426.5C 387.334,416.161 387.5,405.828 388,395.5C 390.016,394.045 390.849,392.045 390.5,389.5C 395.5,389.5 400.5,389.5 405.5,389.5C 405.281,390.675 405.614,391.675 406.5,392.5C 411.789,389.927 413.789,385.594 412.5,379.5C 414.5,379.5 416.5,379.5 418.5,379.5C 418.5,382.5 418.5,385.5 418.5,388.5C 420.262,388.357 421.929,388.691 423.5,389.5C 424.262,388.372 424.929,387.205 425.5,386C 428.284,385.108 430.95,383.942 433.5,382.5C 434.167,384.833 434.833,387.167 435.5,389.5C 436.933,386.367 438.266,383.2 439.5,380C 445.578,377.397 451.911,375.897 458.5,375.5C 458.5,377.5 458.5,379.5 458.5,381.5C 460.144,381.286 461.644,381.62 463,382.5C 463.497,384.81 463.663,387.143 463.5,389.5C 466.167,389.5 468.833,389.5 471.5,389.5C 471.5,391.167 471.5,392.833 471.5,394.5C 473.833,394.5 476.167,394.5 478.5,394.5C 478.5,404.167 478.5,413.833 478.5,423.5C 479.833,423.5 481.167,423.5 482.5,423.5C 482.118,419.46 483.118,415.793 485.5,412.5C 486.167,411.167 486.833,411.167 487.5,412.5C 488.246,413.736 488.579,415.07 488.5,416.5C 492.833,416.5 497.167,416.5 501.5,416.5C 502.224,425.499 503.057,425.165 504,415.5C 506.472,414.399 508.972,413.399 511.5,412.5 Z"/></g>
</svg>
